<?xml version="1.0" encoding="UTF-8" standalone="no"?><!DOCTYPE svg PUBLIC "-//W3C//DTD SVG 1.1//EN" "http://www.w3.org/Graphics/SVG/1.1/DTD/svg11.dtd"><!-- Generated by graphviz version 2.40.1 (20161225.0304)
 --><!-- Title: mygraph Pages: 1 --><svg xmlns="http://www.w3.org/2000/svg" xmlns:xlink="http://www.w3.org/1999/xlink" width="484pt" height="188pt" viewBox="0.00 0.00 484.03 188.00">
<g id="graph0" class="graph" transform="scale(1 1) rotate(0) translate(4 184)">
<title>mygraph</title>
<polygon fill="#ffffff" stroke="transparent" points="-4,4 -4,-184 480.0317,-184 480.0317,4 -4,4"/>
<!-- //:ProjectRunner -->
<g id="node1" class="node">
<title>//:ProjectRunner</title>
<polygon fill="none" stroke="#000000" points="284.0821,-180 176.0057,-180 176.0057,-144 284.0821,-144 284.0821,-180"/>
<text text-anchor="middle" x="230.0439" y="-157.8" font-family="Times,serif" font-size="14.00" fill="#000000">//:ProjectRunner</text>
</g>
<!-- //:greeter -->
<g id="node2" class="node">
<title>//:greeter</title>
<polygon fill="none" stroke="#000000" points="164.073,-108 98.0148,-108 98.0148,-72 164.073,-72 164.073,-108"/>
<text text-anchor="middle" x="131.0439" y="-85.8" font-family="Times,serif" font-size="14.00" fill="#000000">//:greeter</text>
</g>
<!-- //:ProjectRunner&#45;&gt;//:greeter -->
<g id="edge1" class="edge">
<title>//:ProjectRunner-&gt;//:greeter</title>
<path fill="none" stroke="#000000" d="M205.062,-143.8314C192.7511,-134.8779 177.7332,-123.9558 164.4502,-114.2955"/>
<polygon fill="#000000" stroke="#000000" points="166.1638,-111.214 156.0178,-108.1628 162.0466,-116.8752 166.1638,-111.214"/>
</g>
<!-- //:src/main/java/com/example/ProjectRunner.java -->
<g id="node3" class="node">
<title>//:src/main/java/com/example/ProjectRunner.java</title>
<polygon fill="none" stroke="#000000" points="476.0195,-108 182.0683,-108 182.0683,-72 476.0195,-72 476.0195,-108"/>
<text text-anchor="middle" x="329.0439" y="-85.8" font-family="Times,serif" font-size="14.00" fill="#000000">//:src/main/java/com/example/ProjectRunner.java</text>
</g>
<!-- //:ProjectRunner&#45;&gt;//:src/main/java/com/example/ProjectRunner.java -->
<g id="edge2" class="edge">
<title>//:ProjectRunner-&gt;//:src/main/java/com/example/ProjectRunner.java</title>
<path fill="none" stroke="#000000" d="M255.0258,-143.8314C267.3367,-134.8779 282.3546,-123.9558 295.6376,-114.2955"/>
<polygon fill="#000000" stroke="#000000" points="298.0412,-116.8752 304.07,-108.1628 293.924,-111.214 298.0412,-116.8752"/>
</g>
<!-- //:src/main/java/com/example/Greeting.java -->
<g id="node4" class="node">
<title>//:src/main/java/com/example/Greeting.java</title>
<polygon fill="none" stroke="#000000" points="262.1317,-36 -.0439,-36 -.0439,0 262.1317,0 262.1317,-36"/>
<text text-anchor="middle" x="131.0439" y="-13.8" font-family="Times,serif" font-size="14.00" fill="#000000">//:src/main/java/com/example/Greeting.java</text>
</g>
<!-- //:greeter&#45;&gt;//:src/main/java/com/example/Greeting.java -->
<g id="edge3" class="edge">
<title>//:greeter-&gt;//:src/main/java/com/example/Greeting.java</title>
<path fill="none" stroke="#000000" d="M131.0439,-71.8314C131.0439,-64.131 131.0439,-54.9743 131.0439,-46.4166"/>
<polygon fill="#000000" stroke="#000000" points="134.544,-46.4132 131.0439,-36.4133 127.544,-46.4133 134.544,-46.4132"/>
</g>
</g>
</svg>